<?xml version="1.0" encoding="UTF-8"?><svg xmlns="http://www.w3.org/2000/svg" xmlns:xlink="http://www.w3.org/1999/xlink" fill-opacity="1" color-rendering="auto" color-interpolation="auto" text-rendering="auto" stroke="black" stroke-linecap="square" width="1054" stroke-miterlimit="10" shape-rendering="auto" stroke-opacity="1" fill="black" stroke-dasharray="none" font-weight="normal" stroke-width="1" height="474" font-family="'Dialog'" font-style="normal" stroke-linejoin="miter" font-size="12px" stroke-dashoffset="0" image-rendering="auto">
  <!--Generated by ySVG 2.5-->
  <defs id="genericDefs"/>
  <g>
    <defs id="defs1">
      <clipPath clipPathUnits="userSpaceOnUse" id="clipPath1">
        <path d="M0 0 L1054 0 L1054 474 L0 474 L0 0 Z"/>
      </clipPath>
      <clipPath clipPathUnits="userSpaceOnUse" id="clipPath2">
        <path d="M26 71 L1080 71 L1080 545 L26 545 L26 71 Z"/>
      </clipPath>
    </defs>
    <g fill="white" text-rendering="geometricPrecision" shape-rendering="geometricPrecision" transform="translate(-26,-71)" stroke="white">
      <rect x="26" width="1054" height="474" y="71" clip-path="url(#clipPath2)" stroke="none"/>
    </g>
    <g text-rendering="geometricPrecision" stroke-miterlimit="1.45" shape-rendering="geometricPrecision" transform="matrix(1,0,0,1,-26,-71)" stroke-linecap="butt">
      <path fill="none" d="M706.5 188 L811 224 L706.5 260 L602 224 Z" clip-path="url(#clipPath2)"/>
      <text x="641.4873" xml:space="preserve" y="228.7139" clip-path="url(#clipPath2)" font-family="sans-serif" stroke="none">Вы нашли, что искали?</text>
    </g>
    <g text-rendering="geometricPrecision" stroke-miterlimit="1.45" shape-rendering="geometricPrecision" transform="matrix(1,0,0,1,-26,-71)" stroke-linecap="butt">
      <rect x="602" y="86" clip-path="url(#clipPath2)" fill="none" width="209" rx="25.5" ry="25.5" height="51"/>
      <text x="685.5293" xml:space="preserve" y="116.2139" clip-path="url(#clipPath2)" font-family="sans-serif" stroke="none">Начало</text>
    </g>
    <g text-rendering="geometricPrecision" stroke-miterlimit="1.45" shape-rendering="geometricPrecision" transform="matrix(1,0,0,1,-26,-71)" stroke-linecap="butt">
      <path fill="none" d="M855.5 252 L1064.5 252 L1064.5 324 L855.5 324 Z" clip-path="url(#clipPath2)"/>
      <text x="884.9092" xml:space="preserve" y="292.7139" clip-path="url(#clipPath2)" font-family="sans-serif" stroke="none">Рад помочь, обращайтесь!</text>
    </g>
    <g text-rendering="geometricPrecision" stroke-miterlimit="1.45" shape-rendering="geometricPrecision" transform="matrix(1,0,0,1,-26,-71)" stroke-linecap="butt">
      <rect x="855.5" y="356.5" clip-path="url(#clipPath2)" fill="none" width="209" rx="25.5" ry="25.5" height="51"/>
      <text x="943.0811" xml:space="preserve" y="386.7139" clip-path="url(#clipPath2)" font-family="sans-serif" stroke="none">Конец</text>
    </g>
    <g text-rendering="geometricPrecision" stroke-miterlimit="1.45" shape-rendering="geometricPrecision" transform="matrix(1,0,0,1,-26,-71)" stroke-linecap="butt">
      <path fill="none" d="M475.7 252 L580.2 288 L475.7 324 L371.2 288 Z" clip-path="url(#clipPath2)"/>
      <text x="426.5926" xml:space="preserve" y="278.0127" clip-path="url(#clipPath2)" font-family="sans-serif" stroke="none">Вы хотите внести</text>
      <text x="427.744" xml:space="preserve" y="292.7139" clip-path="url(#clipPath2)" font-family="sans-serif" stroke="none">дополнительное </text>
      <text x="446.0867" xml:space="preserve" y="307.415" clip-path="url(#clipPath2)" font-family="sans-serif" stroke="none">описание?</text>
    </g>
    <g text-rendering="geometricPrecision" stroke-miterlimit="1.45" shape-rendering="geometricPrecision" transform="matrix(1,0,0,1,-26,-71)" stroke-linecap="butt">
      <path fill="none" d="M602 324 L811 324 L811 396 L602 396 Z" clip-path="url(#clipPath2)"/>
      <text x="630.375" xml:space="preserve" y="357.3633" clip-path="url(#clipPath2)" font-family="sans-serif" stroke="none">Получить дополнительное </text>
      <text x="680.2236" xml:space="preserve" y="372.0645" clip-path="url(#clipPath2)" font-family="sans-serif" stroke="none">описание</text>
    </g>
    <g text-rendering="geometricPrecision" stroke-miterlimit="1.45" shape-rendering="geometricPrecision" transform="matrix(1,0,0,1,-26,-71)" stroke-linecap="butt">
      <path fill="none" d="M275.7 324 L380.2 360 L275.7 396 L171.2 360 Z" clip-path="url(#clipPath2)"/>
      <text x="235.8943" xml:space="preserve" y="350.0127" clip-path="url(#clipPath2)" font-family="sans-serif" stroke="none">Хотите более </text>
      <text x="237.0603" xml:space="preserve" y="364.7139" clip-path="url(#clipPath2)" font-family="sans-serif" stroke="none">расширенную</text>
      <text x="246.5408" xml:space="preserve" y="379.415" clip-path="url(#clipPath2)" font-family="sans-serif" stroke="none">подборку?</text>
    </g>
    <g text-rendering="geometricPrecision" stroke-miterlimit="1.45" shape-rendering="geometricPrecision" transform="matrix(1,0,0,1,-26,-71)" stroke-linecap="butt">
      <path fill="none" d="M352.4 384 L561.4 384 L561.4 456 L352.4 456 Z" clip-path="url(#clipPath2)"/>
      <text x="405.4635" xml:space="preserve" y="417.3633" clip-path="url(#clipPath2)" font-family="sans-serif" stroke="none">Увеличить список </text>
      <text x="377.775" xml:space="preserve" y="432.0645" clip-path="url(#clipPath2)" font-family="sans-serif" stroke="none">рекомендованных ароматов</text>
    </g>
    <g text-rendering="geometricPrecision" stroke-miterlimit="1.45" shape-rendering="geometricPrecision" transform="matrix(1,0,0,1,-26,-71)" stroke-linecap="butt">
      <path fill="none" d="M602 416.28 L811 416.28 L811 488.28 L602 488.28 Z" clip-path="url(#clipPath2)"/>
      <text x="652.3125" xml:space="preserve" y="456.9939" clip-path="url(#clipPath2)" font-family="sans-serif" stroke="none">Обработать запрос</text>
    </g>
    <g text-rendering="geometricPrecision" stroke-miterlimit="1.45" shape-rendering="geometricPrecision" transform="matrix(1,0,0,1,-26,-71)" stroke-linecap="butt">
      <path fill="none" d="M706.5 137.0157 L706.5 188.0256" clip-path="url(#clipPath2)"/>
    </g>
    <g text-rendering="geometricPrecision" stroke-miterlimit="1.45" shape-rendering="geometricPrecision" transform="matrix(1,0,0,1,-26,-71)" stroke-linecap="butt">
      <path fill="none" d="M811.0007 224 L960 224 L960 243.9688" clip-path="url(#clipPath2)"/>
      <path d="M960 251.9688 L965 239.9688 L960 242.9688 L955 239.9688 Z" clip-path="url(#clipPath2)" stroke="none"/>
      <text x="848.4708" xml:space="preserve" y="213.5587" clip-path="url(#clipPath2)" font-family="sans-serif" stroke="none">Да/Может быть</text>
      <path fill="none" d="M960 324.0303 L960 356.4967" clip-path="url(#clipPath2)"/>
      <path fill="none" d="M602.0033 224 L475.7 224 L475.7 244.0312" clip-path="url(#clipPath2)"/>
      <path d="M475.7 252.0312 L480.7 240.0312 L475.7 243.0312 L470.7 240.0312 Z" clip-path="url(#clipPath2)" stroke="none"/>
      <text x="441.4226" xml:space="preserve" y="215.6099" clip-path="url(#clipPath2)" font-family="sans-serif" stroke="none">Нет/Не совсем/Не уверен(а)</text>
      <path fill="none" d="M580.1967 288 L706.5 288 L706.5 315.9648" clip-path="url(#clipPath2)"/>
      <path d="M706.5 323.9648 L711.5 311.9648 L706.5 314.9648 L701.5 311.9648 Z" clip-path="url(#clipPath2)" stroke="none"/>
      <text x="603.8245" xml:space="preserve" y="281.7539" clip-path="url(#clipPath2)" font-family="sans-serif" stroke="none">Да/Может быть</text>
      <path fill="none" d="M371.221 288 L274.124 288 L274.124 316.5114" clip-path="url(#clipPath2)"/>
      <path d="M274.124 324.5114 L279.124 312.5114 L274.124 315.5114 L269.124 312.5114 Z" clip-path="url(#clipPath2)" stroke="none"/>
      <text x="221.7384" xml:space="preserve" y="280.1219" clip-path="url(#clipPath2)" font-family="sans-serif" stroke="none">Нет/Не совсем/Не уверен(а)</text>
      <path fill="none" d="M380.235 360 L456.9 360 L456.9 375.9941" clip-path="url(#clipPath2)"/>
      <path d="M456.9 383.9941 L461.9 371.9941 L456.9 374.9941 L451.9 371.9941 Z" clip-path="url(#clipPath2)" stroke="none"/>
      <text x="384.092" xml:space="preserve" y="353.7539" clip-path="url(#clipPath2)" font-family="sans-serif" stroke="none">Да/Может быть</text>
      <path fill="none" d="M706.5 396.0018 L706.5 416.2543" clip-path="url(#clipPath2)"/>
      <path fill="none" d="M171.2031 360 L120 360 L120 480 L275.7 480 L275.7 510 L485.7 510 L485.7 530 L41.44 530 L41.44 166.25 L699.4626 166.25" clip-path="url(#clipPath2)"/>
      <path d="M707.4626 166.25 L695.4626 161.25 L698.4626 166.25 L695.4626 171.25 Z" clip-path="url(#clipPath2)" stroke="none"/>
      <text x="53.5432" xml:space="preserve" y="347.9203" clip-path="url(#clipPath2)" font-family="sans-serif" stroke="none">Нет/Не совсем/Не уверен(а)</text>
      <path fill="none" d="M706.5 488.2704 L706.5 510 L485.9964 510" clip-path="url(#clipPath2)"/>
      <path fill="none" d="M456.9 456.0059 L456.9 480 L275.7 480 L275.7 510 L445.9793 510" clip-path="url(#clipPath2)"/>
    </g>
  </g>
</svg>
