<?xml version="1.0" encoding="UTF-8"?><svg xmlns="http://www.w3.org/2000/svg" xmlns:xlink="http://www.w3.org/1999/xlink" fill-opacity="1" color-rendering="auto" color-interpolation="auto" text-rendering="auto" stroke="black" stroke-linecap="square" width="446" stroke-miterlimit="10" shape-rendering="auto" stroke-opacity="1" fill="black" stroke-dasharray="none" font-weight="normal" stroke-width="1" height="292" font-family="'Dialog'" font-style="normal" stroke-linejoin="miter" font-size="12px" stroke-dashoffset="0" image-rendering="auto">
  <!--Generated by ySVG 2.5-->
  <defs id="genericDefs"/>
  <g>
    <g fill="white" text-rendering="geometricPrecision" shape-rendering="geometricPrecision" transform="translate(-901,-597)" stroke="white">
      <rect x="901" width="446" height="292" y="597" clip-path="url(#clipPath2)" stroke="none"/>
    </g>
    <g text-rendering="geometricPrecision" shape-rendering="geometricPrecision" transform="matrix(1.4743,0,0,1.4523,335.7767,15.5)">
      <g clip-path="url(#clipPath3)">
        <svg xmlns:svg="http://www.w3.org/2000/svg" xmlns:sodipodi="http://sodipodi.sourceforge.net/DTD/sodipodi-0.dtd" xmlns:inkscape="http://www.inkscape.org/namespaces/inkscape" xmlns:dc="http://purl.org/dc/elements/1.1/" xmlns:cc="http://web.resource.org/cc/" xmlns:rdf="http://www.w3.org/1999/02/22-rdf-syntax-ns#" opacity="1" writing-mode="lr-tb" stop-color="rgb(0, 0, 0)" shape-rendering="auto" glyph-orientation-horizontal="0deg" color-profile="auto" lighting-color="rgb(255, 255, 255)" color="rgb(0, 0, 0)" font-weight="400" alignment-baseline="auto" font-style="normal" version="1.0" color-interpolation-filters="linearrgb" text-anchor="start" stroke-linecap="butt" color-interpolation="srgb" font-variant="normal" word-spacing="normal" fill-opacity="1" text-rendering="auto" clip-path="none" text-decoration="none" letter-spacing="normal" glyph-orientation-vertical="auto" display="inline" font-size-adjust="none" overflow="hidden" fill="rgb(0, 0, 0)" font-stretch="normal" stroke-dasharray="none" inkscape:version="0.45.1" id="svg1.svg2" stroke-miterlimit="4" stop-opacity="1" color-rendering="auto" font-size="12" sodipodi:docbase="C:\Daten\alberts\projects\yfx" pointer-events="visiblepainted" mask="none" direction="ltr" baseline-shift="baseline" sodipodi:docname="uml_actor.svg" enable-background="accumulate" fill-rule="nonzero" image-rendering="auto" stroke-dashoffset="0" inkscape:output_extension="org.inkscape.output.svg.inkscape" marker-end="none" width="41" clip="auto" cursor="auto" stroke="none" filter="none" visibility="visible" kerning="auto" stroke-width="1" font-family="&quot;Arial&quot;,&quot;Helvetica&quot;,sans-serif" flood-opacity="1" clip-rule="nonzero" src="none" height="68.997391" unicode-bidi="normal" sodipodi:version="0.32" stroke-linejoin="miter" stroke-opacity="1" flood-color="rgb(0, 0, 0)" dominant-baseline="auto" marker-start="none" marker-mid="none">
            
          <defs id="svg1.defs4">
            <clipPath clipPathUnits="userSpaceOnUse" id="clipPath1">
              <path d="M0 0 L446 0 L446 292 L0 292 L0 0 Z"/>
            </clipPath>
            <clipPath clipPathUnits="userSpaceOnUse" id="clipPath2">
              <path d="M901 597 L1347 597 L1347 889 L901 889 L901 597 Z"/>
            </clipPath>
            <clipPath clipPathUnits="userSpaceOnUse" id="clipPath3">
              <path d="M-227.7521 -10.6727 L74.7627 -10.6727 L74.7627 190.3866 L-227.7521 190.3866 L-227.7521 -10.6727 Z"/>
            </clipPath>
          </defs>
            
  
          <metadata id="svg1.metadata7">
    
  </metadata>
            
          <g inkscape:groupmode="layer" id="svg1.layer1" transform="translate(-29.5,-42.959476)" inkscape:label="Ebene 1">
                
            <a id="svg1.a3142" transform="matrix(1.0873906,0,0,1,-4.4741999,0)">
                    
              <path transform="translate(11.586889,5.2908993)" style="fill:none;fill-rule:evenodd;stroke:#000000;stroke-width:1px;stroke-linecap:butt;stroke-linejoin:miter;stroke-opacity:1" sodipodi:cx="38.509369" sodipodi:cy="47.36993" sodipodi:rx="8.5197716" id="svg1.path2160" d="M 47.02914 47.36993 A 8.5197716 9.2013531 0 1 1  29.989597,47.36993 A 8.5197716 9.2013531 0 1 1  47.02914 47.36993 z" sodipodi:ry="9.2013531" sodipodi:type="arc"/>
                  
            </a>
                
            <path style="fill:none" sodipodi:cx="43.962021" sodipodi:cy="48.392303" d="M 47.71072 48.392303 A 3.7486994 0 0 1 1  40.213321,48.392303 A 3.7486994 0 0 1 1  47.71072 48.392303 z" id="svg1.path3134" sodipodi:rx="3.7486994" sodipodi:ry="0" sodipodi:type="arc"/>
                
            <path style="fill:none;fill-rule:evenodd;stroke:#000000;stroke-width:1.24319649px;stroke-linecap:butt;stroke-linejoin:miter;stroke-opacity:1" d="M 50,61.33709 C 50,91.363211 50,92.247838 50,92.247838" id="svg1.path3136"/>
                
            <path style="fill:none;fill-rule:evenodd;stroke:#000000;stroke-width:1px;stroke-linecap:butt;stroke-linejoin:miter;stroke-opacity:1" d="M 69.760668,72.362183 C 69.760668,72.362183 69.760668,72.362183 50.239332,72.362183 C 30.239332,72.362183 30.239332,72.362183 30.239332,72.362183 L 30.239332,72.362183" id="svg1.path3138"/>
                
            <path style="fill:none;fill-rule:evenodd;stroke:#000000;stroke-width:1px;stroke-linecap:butt;stroke-linejoin:miter;stroke-opacity:1" d="M 30,111.45687 C 30,111.45687 30,111.45687 50,92.013532 C 70,111.45687 70,111.45687 70,111.45687" id="svg1.path3140"/>
              
          </g>
          
        </svg>
      </g>
    </g>
    <g font-size="13px" stroke-linecap="butt" transform="matrix(1,0,0,1,-901,-597)" text-rendering="geometricPrecision" font-family="sans-serif" shape-rendering="geometricPrecision" stroke-miterlimit="1.45">
      <text x="1229.5647" xml:space="preserve" y="731.5698" clip-path="url(#clipPath2)" stroke="none">Диалоговая </text>
    </g>
    <g font-size="13px" stroke-linecap="butt" transform="matrix(1,0,0,1,-901,-597)" text-rendering="geometricPrecision" font-family="sans-serif" shape-rendering="geometricPrecision" stroke-miterlimit="1.45">
      <text x="1242.1934" xml:space="preserve" y="747.4961" clip-path="url(#clipPath2)" stroke="none">система</text>
    </g>
    <g text-rendering="geometricPrecision" stroke-miterlimit="1.45" shape-rendering="geometricPrecision" transform="matrix(1,0,0,1,-901,-597)" stroke-linecap="butt">
      <ellipse rx="64.5" fill="none" ry="33.5" clip-path="url(#clipPath2)" cx="1267" cy="840"/>
      <text x="1233.4902" xml:space="preserve" y="837.3633" clip-path="url(#clipPath2)" font-family="sans-serif" stroke="none">Обработать</text>
      <text x="1247.9893" xml:space="preserve" y="852.0645" clip-path="url(#clipPath2)" font-family="sans-serif" stroke="none">запрос</text>
    </g>
    <g text-rendering="geometricPrecision" stroke-miterlimit="1.45" shape-rendering="geometricPrecision" transform="matrix(1,0,0,1,-901,-597)" stroke-linecap="butt">
      <ellipse rx="64.5" fill="none" ry="33.5" clip-path="url(#clipPath2)" cx="1050" cy="662.5"/>
      <text x="999.4863" xml:space="preserve" y="659.8633" clip-path="url(#clipPath2)" font-family="sans-serif" stroke="none">Попросить оценку</text>
      <text x="1018.7783" xml:space="preserve" y="674.5645" clip-path="url(#clipPath2)" font-family="sans-serif" stroke="none">результата</text>
    </g>
    <g text-rendering="geometricPrecision" stroke-miterlimit="1.45" shape-rendering="geometricPrecision" transform="matrix(1,0,0,1,-901,-597)" stroke-linecap="butt">
      <ellipse rx="64.5" fill="none" ry="33.5" clip-path="url(#clipPath2)" cx="1140" cy="796.88"/>
      <text x="1085.8125" xml:space="preserve" y="786.8927" clip-path="url(#clipPath2)" font-family="sans-serif" stroke="none">Обработать запрос</text>
      <text x="1096.2949" xml:space="preserve" y="801.5939" clip-path="url(#clipPath2)" font-family="sans-serif" stroke="none">с уточняющими</text>
      <text x="1102.3799" xml:space="preserve" y="816.295" clip-path="url(#clipPath2)" font-family="sans-serif" stroke="none">параметрами</text>
    </g>
    <g text-rendering="geometricPrecision" stroke-miterlimit="1.45" shape-rendering="geometricPrecision" transform="matrix(1,0,0,1,-901,-597)" stroke-linecap="butt">
      <ellipse rx="64.5" fill="none" ry="33.5" clip-path="url(#clipPath2)" cx="981" cy="796.88"/>
      <text x="949.9336" xml:space="preserve" y="794.2433" clip-path="url(#clipPath2)" font-family="sans-serif" stroke="none">Расширить</text>
      <text x="923.1416" xml:space="preserve" y="808.9445" clip-path="url(#clipPath2)" font-family="sans-serif" stroke="none">список предложений</text>
    </g>
    <g text-rendering="geometricPrecision" stroke-miterlimit="1.45" shape-rendering="geometricPrecision" transform="matrix(1,0,0,1,-901,-597)" stroke-linecap="butt">
      <path fill="none" d="M1267 712.4652 L1267 798.5283" clip-path="url(#clipPath2)"/>
      <path d="M1267 806.5283 L1272 794.5283 L1267 797.5283 L1262 794.5283 Z" clip-path="url(#clipPath2)" stroke="none"/>
      <path fill="none" d="M1236.9877 662.5 L1122.5052 662.5" clip-path="url(#clipPath2)"/>
      <path d="M1114.5052 662.5 L1126.5052 667.5 L1123.5052 662.5 L1126.5052 657.5 Z" clip-path="url(#clipPath2)" stroke="none"/>
      <path fill="none" stroke-dasharray="6,2" d="M1118.7964 765.2206 L1075.6315 700.7707" clip-path="url(#clipPath2)"/>
      <path stroke-dasharray="6,2" d="M1071.1797 694.1238 L1073.703 706.8765 L1076.1879 701.6016 L1082.0117 701.3118 Z" clip-path="url(#clipPath2)" stroke="none"/>
      <text x="1060.3037" xml:space="preserve" y="734.4039" clip-path="url(#clipPath2)" font-family="sans-serif" stroke="none">&lt;&lt;exclude&gt;&gt;</text>
      <path fill="none" stroke-dasharray="6,2" d="M997.6267 764.4989 L1029.7362 701.9645" clip-path="url(#clipPath2)"/>
      <path stroke-dasharray="6,2" d="M1033.3904 694.8478 L1023.4612 703.239 L1029.2794 702.8541 L1032.3571 707.8066 Z" clip-path="url(#clipPath2)" stroke="none"/>
      <text x="963.1774" xml:space="preserve" y="734.4039" clip-path="url(#clipPath2)" font-family="sans-serif" stroke="none">&lt;&lt;exclude&gt;&gt;</text>
    </g>
  </g>
</svg>
