<?xml version="1.0" encoding="UTF-8"?><svg xmlns="http://www.w3.org/2000/svg" xmlns:xlink="http://www.w3.org/1999/xlink" fill-opacity="1" color-rendering="auto" color-interpolation="auto" text-rendering="auto" stroke="black" stroke-linecap="square" width="852" stroke-miterlimit="10" shape-rendering="auto" stroke-opacity="1" fill="black" stroke-dasharray="none" font-weight="normal" stroke-width="1" height="608" font-family="'Dialog'" font-style="normal" stroke-linejoin="miter" font-size="12px" stroke-dashoffset="0" image-rendering="auto">
  <!--Generated by ySVG 2.5-->
  <defs id="genericDefs"/>
  <g>
    <g fill="white" text-rendering="geometricPrecision" shape-rendering="geometricPrecision" transform="translate(63,-71)" stroke="white">
      <rect x="-63" width="852" height="608" y="71" clip-path="url(#clipPath2)" stroke="none"/>
    </g>
    <g text-rendering="geometricPrecision" shape-rendering="geometricPrecision" transform="matrix(1.4743,0,0,1.4523,467.7767,163)">
      <g clip-path="url(#clipPath3)">
        <svg xmlns:svg="http://www.w3.org/2000/svg" xmlns:sodipodi="http://sodipodi.sourceforge.net/DTD/sodipodi-0.dtd" xmlns:inkscape="http://www.inkscape.org/namespaces/inkscape" xmlns:dc="http://purl.org/dc/elements/1.1/" xmlns:cc="http://web.resource.org/cc/" xmlns:rdf="http://www.w3.org/1999/02/22-rdf-syntax-ns#" opacity="1" writing-mode="lr-tb" stop-color="rgb(0, 0, 0)" shape-rendering="auto" glyph-orientation-horizontal="0deg" color-profile="auto" lighting-color="rgb(255, 255, 255)" color="rgb(0, 0, 0)" font-weight="400" alignment-baseline="auto" font-style="normal" version="1.0" color-interpolation-filters="linearrgb" text-anchor="start" stroke-linecap="butt" color-interpolation="srgb" font-variant="normal" word-spacing="normal" fill-opacity="1" text-rendering="auto" clip-path="none" text-decoration="none" letter-spacing="normal" glyph-orientation-vertical="auto" display="inline" font-size-adjust="none" overflow="hidden" fill="rgb(0, 0, 0)" font-stretch="normal" stroke-dasharray="none" inkscape:version="0.45.1" id="svg1.svg2" stroke-miterlimit="4" stop-opacity="1" color-rendering="auto" font-size="12" sodipodi:docbase="C:\Daten\alberts\projects\yfx" pointer-events="visiblepainted" mask="none" direction="ltr" baseline-shift="baseline" sodipodi:docname="uml_actor.svg" enable-background="accumulate" fill-rule="nonzero" image-rendering="auto" stroke-dashoffset="0" inkscape:output_extension="org.inkscape.output.svg.inkscape" marker-end="none" width="41" clip="auto" cursor="auto" stroke="none" filter="none" visibility="visible" kerning="auto" stroke-width="1" font-family="&quot;Arial&quot;,&quot;Helvetica&quot;,sans-serif" flood-opacity="1" clip-rule="nonzero" src="none" height="68.997391" unicode-bidi="normal" sodipodi:version="0.32" stroke-linejoin="miter" stroke-opacity="1" flood-color="rgb(0, 0, 0)" dominant-baseline="auto" marker-start="none" marker-mid="none">
            
          <defs id="svg1.defs4">
            <clipPath clipPathUnits="userSpaceOnUse" id="clipPath1">
              <path d="M0 0 L852 0 L852 608 L0 608 L0 0 Z"/>
            </clipPath>
            <clipPath clipPathUnits="userSpaceOnUse" id="clipPath2">
              <path d="M-63 71 L789 71 L789 679 L-63 679 L-63 71 Z"/>
            </clipPath>
            <clipPath clipPathUnits="userSpaceOnUse" id="clipPath3">
              <path d="M-317.2856 -112.2351 L260.6126 -112.2351 L260.6126 306.4088 L-317.2856 306.4088 L-317.2856 -112.2351 Z"/>
            </clipPath>
          </defs>
            
  
          <metadata id="svg1.metadata7">
    
  </metadata>
            
          <g inkscape:groupmode="layer" id="svg1.layer1" transform="translate(-29.5,-42.959476)" inkscape:label="Ebene 1">
                
            <a id="svg1.a3142" transform="matrix(1.0873906,0,0,1,-4.4741999,0)">
                    
              <path transform="translate(11.586889,5.2908993)" style="fill:none;fill-rule:evenodd;stroke:#000000;stroke-width:1px;stroke-linecap:butt;stroke-linejoin:miter;stroke-opacity:1" sodipodi:cx="38.509369" sodipodi:cy="47.36993" sodipodi:rx="8.5197716" id="svg1.path2160" d="M 47.02914 47.36993 A 8.5197716 9.2013531 0 1 1  29.989597,47.36993 A 8.5197716 9.2013531 0 1 1  47.02914 47.36993 z" sodipodi:ry="9.2013531" sodipodi:type="arc"/>
                  
            </a>
                
            <path style="fill:none" sodipodi:cx="43.962021" sodipodi:cy="48.392303" d="M 47.71072 48.392303 A 3.7486994 0 0 1 1  40.213321,48.392303 A 3.7486994 0 0 1 1  47.71072 48.392303 z" id="svg1.path3134" sodipodi:rx="3.7486994" sodipodi:ry="0" sodipodi:type="arc"/>
                
            <path style="fill:none;fill-rule:evenodd;stroke:#000000;stroke-width:1.24319649px;stroke-linecap:butt;stroke-linejoin:miter;stroke-opacity:1" d="M 50,61.33709 C 50,91.363211 50,92.247838 50,92.247838" id="svg1.path3136"/>
                
            <path style="fill:none;fill-rule:evenodd;stroke:#000000;stroke-width:1px;stroke-linecap:butt;stroke-linejoin:miter;stroke-opacity:1" d="M 69.760668,72.362183 C 69.760668,72.362183 69.760668,72.362183 50.239332,72.362183 C 30.239332,72.362183 30.239332,72.362183 30.239332,72.362183 L 30.239332,72.362183" id="svg1.path3138"/>
                
            <path style="fill:none;fill-rule:evenodd;stroke:#000000;stroke-width:1px;stroke-linecap:butt;stroke-linejoin:miter;stroke-opacity:1" d="M 30,111.45687 C 30,111.45687 30,111.45687 50,92.013532 C 70,111.45687 70,111.45687 70,111.45687" id="svg1.path3140"/>
              
          </g>
          
        </svg>
      </g>
    </g>
    <g font-size="13px" stroke-linecap="butt" transform="matrix(1,0,0,1,63,-71)" text-rendering="geometricPrecision" font-family="sans-serif" shape-rendering="geometricPrecision" stroke-miterlimit="1.45">
      <text x="392.0994" xml:space="preserve" y="353.0698" clip-path="url(#clipPath2)" stroke="none">Пользователь</text>
    </g>
    <g text-rendering="geometricPrecision" stroke-miterlimit="1.45" shape-rendering="geometricPrecision" transform="matrix(1,0,0,1,63,-71)" stroke-linecap="butt">
      <ellipse rx="64.5" fill="none" ry="33.5" clip-path="url(#clipPath2)" cx="570" cy="150"/>
      <text x="524.3701" xml:space="preserve" y="147.3633" clip-path="url(#clipPath2)" font-family="sans-serif" stroke="none">Сделать общий </text>
      <text x="550.9893" xml:space="preserve" y="162.0645" clip-path="url(#clipPath2)" font-family="sans-serif" stroke="none">запрос</text>
    </g>
    <g text-rendering="geometricPrecision" stroke-miterlimit="1.45" shape-rendering="geometricPrecision" transform="matrix(1,0,0,1,63,-71)" stroke-linecap="butt">
      <ellipse rx="64.5" fill="none" ry="33.5" clip-path="url(#clipPath2)" cx="270" cy="167"/>
      <text x="221.2822" xml:space="preserve" y="164.3633" clip-path="url(#clipPath2)" font-family="sans-serif" stroke="none">Указать признаки</text>
      <text x="246.4424" xml:space="preserve" y="179.0645" clip-path="url(#clipPath2)" font-family="sans-serif" stroke="none">аромата</text>
    </g>
    <g text-rendering="geometricPrecision" stroke-miterlimit="1.45" shape-rendering="geometricPrecision" transform="matrix(1,0,0,1,63,-71)" stroke-linecap="butt">
      <ellipse rx="64.5" fill="none" ry="33.5" clip-path="url(#clipPath2)" cx="677.5" cy="254"/>
      <text x="635.4678" xml:space="preserve" y="244.0127" clip-path="url(#clipPath2)" font-family="sans-serif" stroke="none">Указать то, что</text>
      <text x="650.3096" xml:space="preserve" y="258.7139" clip-path="url(#clipPath2)" font-family="sans-serif" stroke="none">нравится </text>
      <text x="646.0879" xml:space="preserve" y="273.415" clip-path="url(#clipPath2)" font-family="sans-serif" stroke="none">в ароматах</text>
    </g>
    <g text-rendering="geometricPrecision" stroke-miterlimit="1.45" shape-rendering="geometricPrecision" transform="matrix(1,0,0,1,63,-71)" stroke-linecap="butt">
      <ellipse rx="64.5" fill="none" ry="33.5" clip-path="url(#clipPath2)" cx="690" cy="375"/>
      <text x="647.9678" xml:space="preserve" y="365.0127" clip-path="url(#clipPath2)" font-family="sans-serif" stroke="none">Указать то, что</text>
      <text x="654.4922" xml:space="preserve" y="379.7139" clip-path="url(#clipPath2)" font-family="sans-serif" stroke="none">не нравится </text>
      <text x="658.5879" xml:space="preserve" y="394.415" clip-path="url(#clipPath2)" font-family="sans-serif" stroke="none">в ароматах</text>
    </g>
    <g text-rendering="geometricPrecision" stroke-miterlimit="1.45" shape-rendering="geometricPrecision" transform="matrix(1,0,0,1,63,-71)" stroke-linecap="butt">
      <ellipse rx="64.5" fill="none" ry="33.5" clip-path="url(#clipPath2)" cx="420" cy="120"/>
      <text x="363.917" xml:space="preserve" y="110.0127" clip-path="url(#clipPath2)" font-family="sans-serif" stroke="none">Запросить похожий </text>
      <text x="380.7832" xml:space="preserve" y="124.7139" clip-path="url(#clipPath2)" font-family="sans-serif" stroke="none">на какой-либо</text>
      <text x="396.5156" xml:space="preserve" y="139.415" clip-path="url(#clipPath2)" font-family="sans-serif" stroke="none">парфюм</text>
    </g>
    <g text-rendering="geometricPrecision" stroke-miterlimit="1.45" shape-rendering="geometricPrecision" transform="matrix(1,0,0,1,63,-71)" stroke-linecap="butt">
      <ellipse rx="64.5" fill="none" ry="33.5" clip-path="url(#clipPath2)" cx="420" cy="480"/>
      <text x="383.2383" xml:space="preserve" y="477.3633" clip-path="url(#clipPath2)" font-family="sans-serif" stroke="none">Явно указать</text>
      <text x="368.3145" xml:space="preserve" y="492.0645" clip-path="url(#clipPath2)" font-family="sans-serif" stroke="none">параметры поиска</text>
    </g>
    <g text-rendering="geometricPrecision" stroke-miterlimit="1.45" shape-rendering="geometricPrecision" transform="matrix(1,0,0,1,63,-71)" stroke-linecap="butt">
      <ellipse rx="64.5" fill="none" ry="33.5" clip-path="url(#clipPath2)" cx="180" cy="492"/>
      <text x="148.5732" xml:space="preserve" y="496.7139" clip-path="url(#clipPath2)" font-family="sans-serif" stroke="none">Задать пол</text>
    </g>
    <g text-rendering="geometricPrecision" stroke-miterlimit="1.45" shape-rendering="geometricPrecision" transform="matrix(1,0,0,1,63,-71)" stroke-linecap="butt">
      <ellipse rx="64.5" fill="none" ry="33.5" clip-path="url(#clipPath2)" cx="330" cy="600"/>
      <text x="308.6602" xml:space="preserve" y="590.0127" clip-path="url(#clipPath2)" font-family="sans-serif" stroke="none">Задать </text>
      <text x="309.2666" xml:space="preserve" y="604.7139" clip-path="url(#clipPath2)" font-family="sans-serif" stroke="none">страну-</text>
      <text x="287.8857" xml:space="preserve" y="619.415" clip-path="url(#clipPath2)" font-family="sans-serif" stroke="none">производитель</text>
    </g>
    <g text-rendering="geometricPrecision" stroke-miterlimit="1.45" shape-rendering="geometricPrecision" transform="matrix(1,0,0,1,63,-71)" stroke-linecap="butt">
      <ellipse rx="64.5" fill="none" ry="33.5" clip-path="url(#clipPath2)" cx="709" cy="480"/>
      <text x="687.6602" xml:space="preserve" y="470.0127" clip-path="url(#clipPath2)" font-family="sans-serif" stroke="none">Задать </text>
      <text x="667.8643" xml:space="preserve" y="484.7139" clip-path="url(#clipPath2)" font-family="sans-serif" stroke="none">парфюмерный</text>
      <text x="698.0371" xml:space="preserve" y="499.415" clip-path="url(#clipPath2)" font-family="sans-serif" stroke="none">дом</text>
    </g>
    <g text-rendering="geometricPrecision" stroke-miterlimit="1.45" shape-rendering="geometricPrecision" transform="matrix(1,0,0,1,63,-71)" stroke-linecap="butt">
      <ellipse rx="64.5" fill="none" ry="33.5" clip-path="url(#clipPath2)" cx="192.5" cy="375"/>
      <text x="171.1602" xml:space="preserve" y="372.3633" clip-path="url(#clipPath2)" font-family="sans-serif" stroke="none">Задать </text>
      <text x="153.9717" xml:space="preserve" y="387.0645" clip-path="url(#clipPath2)" font-family="sans-serif" stroke="none">вид парфюма</text>
    </g>
    <g text-rendering="geometricPrecision" stroke-miterlimit="1.45" shape-rendering="geometricPrecision" transform="matrix(1,0,0,1,63,-71)" stroke-linecap="butt">
      <ellipse rx="64.5" fill="none" ry="33.5" clip-path="url(#clipPath2)" cx="510" cy="630"/>
      <text x="488.6602" xml:space="preserve" y="627.3633" clip-path="url(#clipPath2)" font-family="sans-serif" stroke="none">Задать </text>
      <text x="487.9512" xml:space="preserve" y="642.0645" clip-path="url(#clipPath2)" font-family="sans-serif" stroke="none">сегмент</text>
    </g>
    <g text-rendering="geometricPrecision" stroke-miterlimit="1.45" shape-rendering="geometricPrecision" transform="matrix(1,0,0,1,63,-71)" stroke-linecap="butt">
      <ellipse rx="64.5" fill="none" ry="33.5" clip-path="url(#clipPath2)" cx="660" cy="570"/>
      <text x="638.6602" xml:space="preserve" y="567.3633" clip-path="url(#clipPath2)" font-family="sans-serif" stroke="none">Задать </text>
      <text x="623.2441" xml:space="preserve" y="582.0645" clip-path="url(#clipPath2)" font-family="sans-serif" stroke="none">семейство(а)</text>
    </g>
    <g text-rendering="geometricPrecision" stroke-miterlimit="1.45" shape-rendering="geometricPrecision" transform="matrix(1,0,0,1,63,-71)" stroke-linecap="butt">
      <ellipse rx="64.5" fill="none" ry="33.5" clip-path="url(#clipPath2)" cx="210" cy="258"/>
      <text x="150.5127" xml:space="preserve" y="255.3633" clip-path="url(#clipPath2)" font-family="sans-serif" stroke="none">Оценить полученный</text>
      <text x="182.1152" xml:space="preserve" y="270.0645" clip-path="url(#clipPath2)" font-family="sans-serif" stroke="none">результат</text>
    </g>
    <g text-rendering="geometricPrecision" stroke-miterlimit="1.45" shape-rendering="geometricPrecision" transform="matrix(1,0,0,1,63,-71)" stroke-linecap="butt">
      <ellipse rx="64.5" fill="none" ry="33.5" clip-path="url(#clipPath2)" cx="16.5" cy="311.5"/>
      <text x="-41.4697" xml:space="preserve" y="316.2139" clip-path="url(#clipPath2)" font-family="sans-serif" stroke="none">Дополнить описание</text>
    </g>
    <g text-rendering="geometricPrecision" stroke-miterlimit="1.45" shape-rendering="geometricPrecision" transform="matrix(1,0,0,1,63,-71)" stroke-linecap="butt">
      <ellipse rx="64.5" fill="none" ry="33.5" clip-path="url(#clipPath2)" cx="16.5" cy="222.5"/>
      <text x="-44.6777" xml:space="preserve" y="219.8633" clip-path="url(#clipPath2)" font-family="sans-serif" stroke="none">Запросить расширить</text>
      <text x="-41.3584" xml:space="preserve" y="234.5645" clip-path="url(#clipPath2)" font-family="sans-serif" stroke="none">список предложений</text>
    </g>
    <g text-rendering="geometricPrecision" stroke-miterlimit="1.45" shape-rendering="geometricPrecision" transform="matrix(1,0,0,1,63,-71)" stroke-linecap="butt">
      <path fill="none" d="M465.0256 254.1968 L534.4137 185.3227" clip-path="url(#clipPath2)"/>
    </g>
    <g text-rendering="geometricPrecision" stroke-miterlimit="1.45" shape-rendering="geometricPrecision" transform="matrix(1,0,0,1,63,-71)" stroke-linecap="butt">
      <path d="M540.0916 179.6869 L528.0524 184.5919 L533.704 186.0272 L535.0972 191.6893 Z" stroke="none" clip-path="url(#clipPath2)"/>
      <path fill="none" d="M404.989 262.7195 L314.6563 198.6654" clip-path="url(#clipPath2)"/>
      <path d="M308.1304 194.0379 L315.0271 205.0578 L315.472 199.2438 L320.8114 196.9004 Z" clip-path="url(#clipPath2)" stroke="none"/>
      <path fill="none" d="M464.9869 280.2903 L606.8079 262.7454" clip-path="url(#clipPath2)"/>
      <path d="M614.7474 261.7632 L602.2243 258.2744 L605.8155 262.8682 L603.452 268.1987 Z" clip-path="url(#clipPath2)" stroke="none"/>
      <path fill="none" d="M464.9762 294.6974 L629.3134 353.3432" clip-path="url(#clipPath2)"/>
      <path d="M636.848 356.032 L627.2266 347.2897 L628.3716 353.0071 L623.8656 356.7079 Z" clip-path="url(#clipPath2)" stroke="none"/>
      <path fill="none" d="M430.426 233.9912 L423.7908 161.4461" clip-path="url(#clipPath2)"/>
      <path d="M423.0621 153.4794 L419.1759 165.8849 L423.8819 162.4419 L429.1343 164.9741 Z" clip-path="url(#clipPath2)" stroke="none"/>
      <path fill="none" d="M431.1731 334.0049 L423.1719 438.5542" clip-path="url(#clipPath2)"/>
      <path d="M422.5614 446.5309 L428.4625 434.9474 L423.2482 437.5572 L418.4917 434.1844 Z" clip-path="url(#clipPath2)" stroke="none"/>
      <path fill="none" stroke-dasharray="6,2" d="M244.1895 488.7905 L347.8409 483.608" clip-path="url(#clipPath2)"/>
      <path stroke-dasharray="6,2" d="M355.8309 483.2085 L343.5962 478.814 L346.8421 483.6579 L344.0955 488.8015 Z" clip-path="url(#clipPath2)" stroke="none"/>
      <text x="258.3405" xml:space="preserve" y="479.3817" clip-path="url(#clipPath2)" font-family="sans-serif" stroke="none">&lt;&lt;exclude&gt;&gt;</text>
      <path fill="none" stroke-dasharray="6,2" d="M353.4009 568.7988 L391.8025 517.5967" clip-path="url(#clipPath2)"/>
      <path stroke-dasharray="6,2" d="M396.6025 511.1967 L385.4025 517.7967 L391.2025 518.3967 L393.4026 523.7967 Z" clip-path="url(#clipPath2)" stroke="none"/>
      <text x="340.3037" xml:space="preserve" y="544.7139" clip-path="url(#clipPath2)" font-family="sans-serif" stroke="none">&lt;&lt;exclude&gt;&gt;</text>
      <path fill="none" stroke-dasharray="6,2" d="M644.476 480 L492.4766 480" clip-path="url(#clipPath2)"/>
      <path stroke-dasharray="6,2" d="M484.4766 480 L496.4766 485 L493.4766 480 L496.4766 475 Z" clip-path="url(#clipPath2)" stroke="none"/>
      <text x="528.1653" xml:space="preserve" y="469.9683" clip-path="url(#clipPath2)" font-family="sans-serif" stroke="none">&lt;&lt;exclude&gt;&gt;</text>
      <path fill="none" stroke-dasharray="6,2" d="M240.7382 397.2638 L364.551 454.4081" clip-path="url(#clipPath2)"/>
      <path stroke-dasharray="6,2" d="M371.8146 457.7606 L363.0144 448.1921 L363.643 453.9891 L358.8238 457.2717 Z" clip-path="url(#clipPath2)" stroke="none"/>
      <text x="271.5537" xml:space="preserve" y="432.2139" clip-path="url(#clipPath2)" font-family="sans-serif" stroke="none">&lt;&lt;exclude&gt;&gt;</text>
      <path fill="none" stroke-dasharray="6,2" d="M490.8179 598.0298 L443.29 518.8167" clip-path="url(#clipPath2)"/>
      <path stroke-dasharray="6,2" d="M439.1741 511.9568 L441.0606 524.8192 L443.8045 519.6742 L449.6355 519.6742 Z" clip-path="url(#clipPath2)" stroke="none"/>
      <text x="434.2157" xml:space="preserve" y="566.2339" clip-path="url(#clipPath2)" font-family="sans-serif" stroke="none">&lt;&lt;exclude&gt;&gt;</text>
      <path fill="none" stroke-dasharray="6,2" d="M607.7051 550.3894 L479.7786 502.417" clip-path="url(#clipPath2)"/>
      <path stroke-dasharray="6,2" d="M472.288 499.608 L481.7683 508.5031 L480.7149 502.7681 L485.2795 499.1398 Z" clip-path="url(#clipPath2)" stroke="none"/>
      <text x="511.7237" xml:space="preserve" y="518.0701" clip-path="url(#clipPath2)" font-family="sans-serif" stroke="none">&lt;&lt;exclude&gt;&gt;</text>
      <path fill="none" d="M404.9799 280.531 L280.9252 266.1958" clip-path="url(#clipPath2)"/>
      <path d="M272.9781 265.2775 L284.3248 271.6219 L281.9186 266.3106 L285.4727 261.688 Z" clip-path="url(#clipPath2)" stroke="none"/>
      <path fill="none" stroke-dasharray="6,2" d="M73.4257 295.7609 L145.3722 275.8687" clip-path="url(#clipPath2)"/>
      <path stroke-dasharray="6,2" d="M153.0829 273.7368 L140.1844 272.1154 L144.4084 276.1351 L142.8493 281.7538 Z" clip-path="url(#clipPath2)" stroke="none"/>
      <text x="79.5175" xml:space="preserve" y="289.1974" clip-path="url(#clipPath2)" font-family="sans-serif" stroke="none">&lt;&lt;exclude&gt;&gt;</text>
      <path fill="none" stroke-dasharray="6,2" d="M77.2994 233.6544 L141.321 245.4" clip-path="url(#clipPath2)"/>
      <path stroke-dasharray="6,2" d="M149.1897 246.8436 L138.289 239.7603 L140.3374 245.2195 L136.4844 249.5961 Z" clip-path="url(#clipPath2)" stroke="none"/>
      <text x="78.9568" xml:space="preserve" y="229.096" clip-path="url(#clipPath2)" font-family="sans-serif" stroke="none">&lt;&lt;exclude&gt;&gt;</text>
    </g>
  </g>
</svg>
